<svg width="59" height="67" viewBox="0 0 59 67" fill="none" xmlns="http://www.w3.org/2000/svg">
<path d="M24.1183 5.208V2.11111" stroke="#732E54" stroke-width="3.20182" stroke-miterlimit="10" stroke-linecap="round"/>
<path d="M10.9728 5.44138L12.8737 7.67652" stroke="#732E54" stroke-width="3.20182" stroke-miterlimit="10" stroke-linecap="round"/>
<path d="M37.3489 5.44138L35.4575 7.67652" stroke="#732E54" stroke-width="3.20182" stroke-miterlimit="10" stroke-linecap="round"/>
<path opacity="0.8" d="M52.4521 29.7497L33.4715 41.464C32.9173 41.7534 32.268 41.8324 31.6548 41.6851C31.0417 41.5377 30.5103 41.1749 30.168 40.67C29.8258 40.165 29.6982 39.5556 29.8111 38.9649C29.924 38.3741 30.2689 37.8461 30.7762 37.4874L49.6906 25.7731C49.9657 25.6034 50.2733 25.4867 50.5959 25.4298C50.9185 25.3729 51.2497 25.3768 51.5707 25.4414C51.8917 25.506 52.1961 25.63 52.4666 25.8063C52.7371 25.9826 52.9684 26.2077 53.1472 26.4688C53.326 26.7299 53.4489 27.0219 53.5089 27.3281C53.5688 27.6342 53.5647 27.9486 53.4966 28.2533C53.4286 28.558 53.2979 28.8469 53.1122 29.1037C52.9265 29.3604 52.6894 29.5799 52.4143 29.7497H52.4521Z" fill="#389BF3"/>
<path opacity="0.8" d="M27.0878 45.4046L14.3962 53.277C14.1212 53.4467 13.8135 53.5634 13.4909 53.6203C13.1684 53.6772 12.8371 53.6732 12.5161 53.6086C11.8679 53.4782 11.3008 53.1086 10.9396 52.5813C10.5784 52.054 10.4528 51.4121 10.5902 50.7968C10.7277 50.1815 11.117 49.6432 11.6726 49.3004L24.3641 41.428C24.9197 41.0852 25.596 40.9659 26.2442 41.0964C26.8925 41.2269 27.4596 41.5964 27.8208 42.1237C28.1819 42.6511 28.3076 43.293 28.1702 43.9083C28.0327 44.5235 27.6434 45.0618 27.0878 45.4046Z" fill="#FF9D23"/>
<path d="M43.5434 27.0029L24.5628 38.6723C24.2877 38.842 23.9801 38.9587 23.6575 39.0156C23.3349 39.0725 23.0037 39.0685 22.6827 39.0039C22.3617 38.9393 22.0573 38.8154 21.7868 38.6391C21.5163 38.4628 21.285 38.2377 21.1062 37.9766C20.9273 37.7155 20.8044 37.4235 20.7445 37.1173C20.6845 36.8111 20.6887 36.4967 20.7568 36.1921C20.8248 35.8874 20.9554 35.5985 21.1411 35.3417C21.3268 35.085 21.564 34.8654 21.8391 34.6957L40.8103 23.0173C41.3668 22.6952 42.0338 22.5915 42.6695 22.7284C43.3053 22.8653 43.8598 23.232 44.2155 23.7506C44.5711 24.2692 44.6998 24.8989 44.5743 25.5061C44.4489 26.1133 44.0791 26.6502 43.5434 27.0029Z" fill="#AA7DFF"/>
<path d="M18.1697 42.6488L5.48758 50.4853C4.93099 50.8075 4.26405 50.9111 3.6283 50.7742C2.99254 50.6373 2.43801 50.2706 2.08238 49.752C1.72675 49.2334 1.59801 48.6037 1.72349 47.9965C1.84896 47.3893 2.21878 46.8524 2.75445 46.4998L15.446 38.6723C15.7211 38.5025 16.0287 38.3859 16.3513 38.329C16.6739 38.2721 17.0051 38.276 17.3261 38.3406C17.6471 38.4052 17.9515 38.5292 18.222 38.7055C18.4925 38.8817 18.7238 39.1068 18.9026 39.3679C19.0815 39.6291 19.2044 39.921 19.2643 40.2272C19.3243 40.5334 19.3201 40.8478 19.252 41.1525C19.184 41.4571 19.0534 41.7461 18.8677 42.0028C18.682 42.2596 18.4448 42.4791 18.1697 42.6488Z" fill="#389BF3"/>
<path d="M49.265 23.4661L49.1515 23.5379C48.8764 23.7083 48.5687 23.8255 48.2459 23.883C47.923 23.9404 47.5915 23.937 47.27 23.8728C46.9486 23.8086 46.6437 23.6849 46.3726 23.5089C46.1015 23.3329 45.8696 23.1079 45.6902 22.8468C45.5107 22.5856 45.3872 22.2935 45.3267 21.9871C45.2662 21.6807 45.2698 21.366 45.3374 21.0609C45.405 20.7558 45.5353 20.4664 45.7208 20.2091C45.9063 19.9518 46.1433 19.7317 46.4184 19.5614L46.5413 19.4896C47.0969 19.1467 47.7732 19.0274 48.4214 19.1579C49.0697 19.2884 49.6368 19.6579 49.9979 20.1852C50.3591 20.7126 50.4848 21.3545 50.3474 21.9698C50.2099 22.585 49.8206 23.1233 49.265 23.4661Z" fill="#FF9D23"/>
<path opacity="0.5" d="M51.4874 38.6005L32.5068 50.3148C31.9539 50.5845 31.3148 50.6487 30.7146 50.4948C30.1145 50.3409 29.5964 49.9801 29.2617 49.4828C28.927 48.9855 28.7998 48.3876 28.905 47.806C29.0102 47.2245 29.3402 46.7011 29.8304 46.3382L48.7448 34.6239C49.3004 34.2811 49.9767 34.1618 50.6249 34.2923C51.2732 34.4227 51.8403 34.7923 52.2014 35.3196C52.5626 35.8469 52.6883 36.4888 52.5509 37.1041C52.4134 37.7194 52.0241 38.2577 51.4685 38.6005H51.4874Z" fill="#389BF3"/>
<path opacity="0.5" d="M26.1232 54.2554L13.4316 62.0829C13.1565 62.2527 12.8489 62.3693 12.5263 62.4262C12.2037 62.4831 11.8725 62.4792 11.5515 62.4146C11.2305 62.35 10.9261 62.226 10.6556 62.0497C10.3851 61.8735 10.1538 61.6483 9.97499 61.3872C9.79615 61.1261 9.67325 60.8341 9.61329 60.528C9.55334 60.2218 9.55751 59.9074 9.62557 59.6027C9.76302 58.9874 10.1524 58.4492 10.7079 58.1063L23.3995 50.2788C23.9551 49.936 24.6314 49.8167 25.2796 49.9472C25.9278 50.0777 26.4949 50.4472 26.8561 50.9745C27.2173 51.5019 27.343 52.1438 27.2055 52.7591C27.0681 53.3743 26.6787 53.9126 26.1232 54.2554Z" fill="#AA7DFF"/>
<path opacity="0.5" d="M57.2563 35.0727L57.1428 35.1445C56.8678 35.3143 56.5601 35.4309 56.2375 35.4878C55.915 35.5448 55.5837 35.5408 55.2627 35.4762C54.9418 35.4116 54.6373 35.2876 54.3668 35.1113C54.0963 34.9351 53.8651 34.71 53.6862 34.4489C53.5074 34.1878 53.3845 33.8958 53.3245 33.5896C53.2646 33.2834 53.2688 32.969 53.3368 32.6643C53.4049 32.3597 53.5355 32.0707 53.7212 31.814C53.9069 31.5572 54.1441 31.3377 54.4192 31.168L54.5327 31.0961C54.8077 30.9264 55.1154 30.8097 55.438 30.7528C55.7605 30.6959 56.0918 30.6999 56.4128 30.7645C56.7337 30.8291 57.0382 30.9531 57.3087 31.1293C57.5791 31.3056 57.8104 31.5307 57.9893 31.7918C58.1681 32.0529 58.291 32.3449 58.351 32.6511C58.4109 32.9573 58.4067 33.2717 58.3387 33.5764C58.2706 33.881 58.14 34.17 57.9543 34.4267C57.7686 34.6835 57.5314 34.903 57.2563 35.0727Z" fill="#FF9D23"/>
<path d="M7.6911 35.0637C8.8827 37.7567 10.7174 40.1444 12.2495 42.6847C13.7815 45.2251 15.0866 48.0706 14.9069 50.97H32.8756C32.7338 48.0437 33.9916 45.2251 35.5237 42.6847C37.0557 40.1444 38.8904 37.7477 40.0915 35.0637C45.0565 23.897 37.3962 9.73214 23.9007 9.92962C10.3864 9.73214 2.74498 23.897 7.6911 35.0637Z" fill="white"/>
<path d="M24.0994 9.795V50.8354H33.0932C32.9513 47.9091 34.2091 45.0905 35.7412 42.5501C37.2733 40.0098 39.1174 37.6131 40.309 34.9291C45.2552 23.7624 37.6137 9.59751 24.0994 9.795Z" fill="#CEC1BC"/>
<path d="M7.82359 35.324C9.02465 38.017 10.8594 40.4047 12.3914 42.945C13.7476 45.0207 14.6363 47.3405 15.0016 49.7582C15.0529 50.1675 15.262 50.5443 15.5885 50.8161C15.915 51.0879 16.3359 51.2354 16.7701 51.2303H31.3058C31.7401 51.2354 32.161 51.0879 32.4875 50.8161C32.814 50.5443 33.023 50.1675 33.0743 49.7582C33.4309 47.3384 34.3203 45.017 35.6845 42.945C37.2166 40.4047 39.0513 38.017 40.2334 35.324C45.1796 24.1573 37.5381 9.99243 24.0238 10.1899C10.5283 9.99243 2.87747 24.1573 7.82359 35.324Z" stroke="#732E54" stroke-width="3.20182" stroke-miterlimit="10"/>
<path d="M17.3469 58.4654H30.2087V58.7347C30.2087 59.5363 30.0424 60.33 29.7192 61.0706C29.396 61.8111 28.9223 62.484 28.3252 63.0509C27.728 63.6177 27.0191 64.0673 26.2388 64.374C25.4586 64.6808 24.6224 64.8387 23.7778 64.8387C22.0723 64.8387 20.4365 64.1956 19.2305 63.0509C18.0245 61.9061 17.3469 60.3536 17.3469 58.7347V58.4654Z" fill="url(#paint0_linear_13_1068)"/>
<path d="M17.536 58.6629H30.4262V58.9322C30.4262 59.7338 30.2599 60.5275 29.9367 61.2681C29.6135 62.0086 29.1398 62.6815 28.5427 63.2483C27.9455 63.8152 27.2365 64.2648 26.4563 64.5715C25.6761 64.8783 24.8398 65.0362 23.9953 65.0362C23.1484 65.0397 22.3091 64.8844 21.5256 64.5793C20.7421 64.2741 20.0298 63.8251 19.4296 63.2579C18.8295 62.6907 18.3532 62.0166 18.0283 61.2743C17.7033 60.532 17.536 59.736 17.536 58.9322V58.6629Z" stroke="#732E54" stroke-width="3.20182" stroke-miterlimit="10"/>
<path d="M10.8971 58.6359H36.772" stroke="#732E54" stroke-width="3.20182" stroke-miterlimit="10" stroke-linecap="round"/>
<path d="M15.4933 55.1351H30.9653" stroke="#732E54" stroke-width="3.20182" stroke-miterlimit="10" stroke-linecap="round"/>
<path d="M42.3707 14.5525L45.8699 12.5417" stroke="#732E54" stroke-width="3.20182" stroke-miterlimit="10" stroke-linecap="round"/>
<path d="M5.9037 14.5525L2.40454 12.5417" stroke="#732E54" stroke-width="3.20182" stroke-miterlimit="10" stroke-linecap="round"/>
<path d="M24.0994 50.8354V43.5285" stroke="#732E54" stroke-width="3.20182" stroke-miterlimit="10" stroke-linecap="round"/>
<path d="M27.4567 38.9415L25.7922 41.1408L24.1277 43.34L22.4727 41.1408L20.8083 38.9415" stroke="#732E54" stroke-width="3.20182" stroke-miterlimit="10" stroke-linecap="round"/>
<path d="M35.1076 34.0763C34.8512 34.7471 34.5348 35.3957 34.1618 36.0152" stroke="white" stroke-width="1.60091" stroke-miterlimit="10" stroke-linecap="round"/>
<path opacity="0.3" d="M36.4505 28.08C36.4215 28.8382 36.3202 29.5923 36.1479 30.3331" stroke="white" stroke-width="1.60091" stroke-miterlimit="10" stroke-linecap="round"/>
<path d="M29.6886 15.3604C31.4132 16.2512 32.9161 17.4832 34.0957 18.973C35.2754 20.4628 36.1042 22.1757 36.5261 23.9957" stroke="white" stroke-width="1.60091" stroke-miterlimit="10" stroke-linecap="round"/>
<path opacity="0.7" d="M14.7935 16.4196C16.3708 15.2742 18.1955 14.4742 20.1368 14.0767C21.88 13.7089 23.6819 13.6662 25.4423 13.9511" stroke="white" stroke-width="1.60091" stroke-miterlimit="10" stroke-linecap="round"/>
<path d="M11.9468 20.5129C12.9545 18.7779 14.3644 17.2831 16.0702 16.1413" stroke="white" stroke-width="3.20182" stroke-miterlimit="10" stroke-linecap="round"/>
<path d="M15.1812 36.8231C13.057 35.1434 11.5144 32.896 10.7537 30.373C9.99306 27.8501 10.0496 25.1683 10.916 22.6762" stroke="white" stroke-width="3.20182" stroke-miterlimit="10" stroke-linecap="round"/>
<defs>
<linearGradient id="paint0_linear_13_1068" x1="17.3469" y1="61.652" x2="30.2087" y2="61.652" gradientUnits="userSpaceOnUse">
<stop offset="0.04" stop-color="#F27B40"/>
<stop offset="1" stop-color="#EC697D"/>
</linearGradient>
</defs>
</svg>
